{
	"asset":{
		"generator":"Khronos glTF Blender I/O v4.2.57",
		"version":"2.0"
	},
	"extensionsUsed":[
		"KHR_materials_clearcoat",
		"KHR_materials_specular",
		"KHR_materials_ior",
		"KHR_materials_sheen"
	],
	"scene":0,
	"scenes":[
		{
			"name":"Scene",
			"nodes":[
				0,
				1
			]
		}
	],
	"nodes":[
		{
			"mesh":0,
			"name":"Cylinder",
			"rotation":[
				0.13420319557189941,
				0.13420319557189941,
				-0.6942546367645264,
				0.6942546367645264
			],
			"scale":[
				0.017045900225639343,
				0.04616518318653107,
				0.017045900225639343
			],
			"translation":[
				0,
				-1.431367039680481,
				0
			]
		},
		{
			"mesh":1,
			"name":"Cylinder.001",
			"rotation":[
				0.5858081579208374,
				0.5858081579208374,
				-0.3960161805152893,
				0.39601609110832214
			],
			"scale":[
				0.08522956073284149,
				0.06690607219934464,
				0.08522946387529373
			],
			"translation":[
				0,
				-1.431367039680481,
				0
			]
		}
	],
	"materials":[
		{
			"doubleSided":true,
			"name":"Gold"
		},
		{
			"doubleSided":true,
			"extensions":{
				"KHR_materials_clearcoat":{
					"clearcoatFactor":0.25,
					"clearcoatRoughnessFactor":0
				},
				"KHR_materials_specular":{
					"specularFactor":0.30000001192092896
				},
				"KHR_materials_sheen":{
					"sheenColorFactor":[
						1.0,
						1.0,
						1.0
					],
					"sheenRoughnessFactor":0.5
				},
				"KHR_materials_ior":{
					"ior":1.4500000476837158
				}
			},
			"name":"Mother of pearl",
			"pbrMetallicRoughness":{
				"metallicFactor":0.918181836605072,
				"roughnessFactor":0.2136363685131073
			}
		}
	],
	"meshes":[
		{
			"name":"Cylinder",
			"primitives":[
				{
					"attributes":{
						"POSITION":0,
						"NORMAL":1,
						"TEXCOORD_0":2,
						"TEXCOORD_1":3
					},
					"indices":4,
					"material":0
				}
			]
		},
		{
			"name":"Cylinder.001",
			"primitives":[
				{
					"attributes":{
						"POSITION":5,
						"NORMAL":6,
						"TEXCOORD_0":7,
						"TEXCOORD_1":8
					},
					"indices":9,
					"material":1
				}
			]
		}
	],
	"accessors":[
		{
			"bufferView":0,
			"componentType":5126,
			"count":16974,
			"max":[
				20.625024795532227,
				15.593341827392578,
				72.17451477050781
			],
			"min":[
				-18.49620819091797,
				-15.726799964904785,
				-64.45225524902344
			],
			"type":"VEC3"
		},
		{
			"bufferView":1,
			"componentType":5126,
			"count":16974,
			"type":"VEC3"
		},
		{
			"bufferView":2,
			"componentType":5126,
			"count":16974,
			"type":"VEC2"
		},
		{
			"bufferView":3,
			"componentType":5126,
			"count":16974,
			"type":"VEC2"
		},
		{
			"bufferView":4,
			"componentType":5123,
			"count":22692,
			"type":"SCALAR"
		},
		{
			"bufferView":5,
			"componentType":5126,
			"count":90256,
			"max":[
				13.733565330505371,
				11.540682792663574,
				4.91076135635376
			],
			"min":[
				-15.373846054077148,
				-11.878384590148926,
				-4.555700778961182
			],
			"type":"VEC3"
		},
		{
			"bufferView":6,
			"componentType":5126,
			"count":90256,
			"type":"VEC3"
		},
		{
			"bufferView":7,
			"componentType":5126,
			"count":90256,
			"type":"VEC2"
		},
		{
			"bufferView":8,
			"componentType":5126,
			"count":90256,
			"type":"VEC2"
		},
		{
			"bufferView":9,
			"componentType":5125,
			"count":452352,
			"type":"SCALAR"
		}
	],
	"bufferViews":[
		{
			"buffer":0,
			"byteLength":203688,
			"byteOffset":0,
			"target":34962
		},
		{
			"buffer":0,
			"byteLength":203688,
			"byteOffset":203688,
			"target":34962
		},
		{
			"buffer":0,
			"byteLength":135792,
			"byteOffset":407376,
			"target":34962
		},
		{
			"buffer":0,
			"byteLength":135792,
			"byteOffset":543168,
			"target":34962
		},
		{
			"buffer":0,
			"byteLength":45384,
			"byteOffset":678960,
			"target":34963
		},
		{
			"buffer":0,
			"byteLength":1083072,
			"byteOffset":724344,
			"target":34962
		},
		{
			"buffer":0,
			"byteLength":1083072,
			"byteOffset":1807416,
			"target":34962
		},
		{
			"buffer":0,
			"byteLength":722048,
			"byteOffset":2890488,
			"target":34962
		},
		{
			"buffer":0,
			"byteLength":722048,
			"byteOffset":3612536,
			"target":34962
		},
		{
			"buffer":0,
			"byteLength":1809408,
			"byteOffset":4334584,
			"target":34963
		}
	],
	"buffers":[
		{
			"byteLength":6143992,
			"uri":"HLess_Necklace.bin"
		}
	]
}
